<?xml version="1.0" encoding="utf-8"?>
<!-- Generator: Adobe Illustrator 23.0.2, SVG Export Plug-In . SVG Version: 6.00 Build 0)  -->
<svg version="1.1" id="Layer_1" xmlns="http://www.w3.org/2000/svg" xmlns:xlink="http://www.w3.org/1999/xlink" x="0px" y="0px"
	 viewBox="0 0 173.73 172.89" style="enable-background:new 0 0 173.73 172.89;" xml:space="preserve">
<style type="text/css">
	.st0{fill:#3583AE;}
</style>
<g>
	<g transform="translate(50 50) scale(0.69 0.69) rotate(0) translate(-50 -50)">
		<path class="st0" d="M168.31,85.72c22.77,0,41.3-18.52,41.3-41.3s-18.52-41.3-41.3-41.3c-16.54,0-30.79,9.79-37.38,23.86
			l-11.06-4.08c0.13-0.85,0.26-1.69,0.26-2.57c0-9.49-7.72-17.21-17.21-17.21s-17.21,7.72-17.21,17.21s7.72,17.21,17.21,17.21
			c6.16,0,11.54-3.29,14.58-8.17l11.04,4.07c-0.97,3.5-1.53,7.17-1.53,10.98c0,4.51,0.75,8.84,2.09,12.9L91.26,73.36
			C84.33,60.26,70.57,51.3,54.75,51.3c-5.13,0-10.02,0.98-14.56,2.7l-9.52-20c4.15-3.15,6.87-8.07,6.87-13.67
			c0-9.49-7.72-17.21-17.21-17.21S3.13,10.84,3.13,20.33s7.72,17.21,17.21,17.21c1.43,0,2.8-0.23,4.14-0.56l9.51,19.98
			C21.72,64.13,13.45,77.4,13.45,92.6c0,14.27,7.28,26.87,18.32,34.29l-6.29,11.32c-1.64-0.52-3.34-0.87-5.14-0.87
			c-9.49,0-17.21,7.72-17.21,17.21s7.72,17.21,17.21,17.21s17.21-7.72,17.21-17.21c0-5.21-2.38-9.83-6.05-12.99l6.31-11.34
			c5.18,2.34,10.9,3.68,16.95,3.68c9.44,0,18.13-3.22,25.09-8.58l13.55,14.9c-6.87,7.38-11.11,17.23-11.11,28.09
			c0,2.11,0.21,4.16,0.51,6.18l-15.94,3.78c-2.74-5.86-8.66-9.96-15.55-9.96c-9.49,0-17.21,7.72-17.21,17.21s7.72,17.21,17.21,17.21
			s17.21-7.72,17.21-17.21c0-0.19-0.05-0.37-0.06-0.56l15.91-3.77c5.42,16.48,20.94,28.42,39.21,28.42c22.77,0,41.3-18.52,41.3-41.3
			c0-7.06-1.79-13.71-4.92-19.53l20.21-13.14c3.12,3.17,7.45,5.14,12.24,5.14c9.49,0,17.21-7.72,17.21-17.21
			s-7.72-17.21-17.21-17.21c-9.49,0-17.21,7.72-17.21,17.21c0,2.22,0.46,4.34,1.23,6.29l-20.26,13.17
			c-4.05-5.21-9.32-9.42-15.38-12.22l16.8-46.57C161.01,85.18,164.59,85.72,168.31,85.72z M102.92,30.66
			c-5.69,0-10.32-4.63-10.32-10.32s4.63-10.32,10.32-10.32s10.32,4.63,10.32,10.32S108.62,30.66,102.92,30.66z M10.01,20.33
			c0-5.69,4.63-10.32,10.32-10.32s10.32,4.63,10.32,10.32s-4.63,10.32-10.32,10.32S10.01,26.02,10.01,20.33z M20.33,164.87
			c-5.69,0-10.32-4.63-10.32-10.32s4.63-10.32,10.32-10.32s10.32,4.63,10.32,10.32S26.02,164.87,20.33,164.87z M51.3,195.84
			c-5.69,0-10.32-4.63-10.32-10.32s4.63-10.32,10.32-10.32c5.69,0,10.32,4.63,10.32,10.32S57,195.84,51.3,195.84z M192.4,113.25
			c5.69,0,10.32,4.63,10.32,10.32c0,5.69-4.63,10.32-10.32,10.32s-10.32-4.63-10.32-10.32C182.08,117.88,186.71,113.25,192.4,113.25
			z M148.04,72.17c1.53-7.96,8.55-13.99,16.82-13.99h6.88c8.27,0,15.29,6.03,16.82,13.99c-5.69,4.17-12.68,6.66-20.27,6.66
			C160.73,78.84,153.74,76.34,148.04,72.17z M168.31,51.3c-5.69,0-10.32-4.63-10.32-10.32s4.63-10.32,10.32-10.32
			c5.69,0,10.32,4.63,10.32,10.32S174,51.3,168.31,51.3z M168.31,10.01c18.98,0,34.41,15.44,34.41,34.41c0,8.6-3.2,16.46-8.44,22.5
			c-2.41-6.35-7.44-11.42-13.7-13.92c3.05-3.1,4.93-7.34,4.93-12.02c0-9.49-7.72-17.21-17.21-17.21c-9.49,0-17.21,7.72-17.21,17.21
			c0,4.68,1.89,8.92,4.93,12.02c-6.26,2.5-11.29,7.57-13.7,13.92c-5.24-6.04-8.44-13.9-8.44-22.5
			C133.9,25.45,149.34,10.01,168.31,10.01z M20.33,92.6c0-18.98,15.44-34.41,34.41-34.41S89.16,73.62,89.16,92.6
			c0,8.63-3.22,16.51-8.49,22.56c-2.4-6.37-7.44-11.47-13.72-13.98c3.04-3.1,4.93-7.34,4.93-12.02c0-9.49-7.72-17.21-17.21-17.21
			s-17.21,7.72-17.21,17.21c0,4.68,1.89,8.92,4.93,12.02c-6.25,2.49-11.27,7.54-13.69,13.87C23.51,109.02,20.33,101.18,20.33,92.6z
			 M44.35,89.16c0-5.69,4.63-10.32,10.32-10.32S65,83.47,65,89.16c0,5.69-4.63,10.32-10.32,10.32S44.35,94.85,44.35,89.16z
			 M34.42,120.31c1.55-7.94,8.56-13.94,16.81-13.94h6.88c8.29,0,15.32,6.05,16.83,14.03c-5.68,4.14-12.65,6.62-20.2,6.62
			C47.14,127.01,40.12,124.5,34.42,120.31z M103.25,196.02c1.55-7.94,8.56-13.94,16.81-13.94h6.88c8.29,0,15.32,6.05,16.83,14.03
			c-5.68,4.14-12.65,6.62-20.2,6.62C115.96,202.72,108.95,200.21,103.25,196.02z M123.5,175.19c-5.69,0-10.32-4.63-10.32-10.32
			s4.63-10.32,10.32-10.32c5.69,0,10.32,4.63,10.32,10.32S129.2,175.19,123.5,175.19z M157.99,168.31c0,8.63-3.22,16.51-8.49,22.56
			c-2.4-6.37-7.44-11.47-13.72-13.98c3.04-3.1,4.93-7.34,4.93-12.02c0-9.49-7.72-17.21-17.21-17.21s-17.21,7.72-17.21,17.21
			c0,4.68,1.89,8.92,4.93,12.02c-6.25,2.49-11.27,7.54-13.69,13.87c-5.21-6.03-8.39-13.87-8.39-22.45
			c0-18.98,15.44-34.41,34.41-34.41S157.99,149.34,157.99,168.31z M134.31,128.48c-3.43-0.93-7.02-1.47-10.73-1.47
			c-9.44,0-18.13,3.22-25.09,8.58l-13.55-14.9c6.87-7.38,11.11-17.23,11.11-28.09c0-4.51-0.75-8.84-2.09-12.9l37.85-16.04
			c4.24,8.01,11.04,14.45,19.31,18.26L134.31,128.48z"/>
	</g>
</g>
</svg>
